<svg xmlns="http://www.w3.org/2000/svg" viewBox="0 0 100 100"><!-- Valdo V1 — Bonvoyage -->
<rect width="100" height="100" rx="24" fill="#123F66"/>
<rect x="38" y="16" width="24" height="16" rx="6" fill="#F97316"/>
<rect x="44" y="21" width="12" height="6" rx="3" fill="#123F66"/>
<rect x="32" y="70" width="9" height="12" rx="3" fill="#F97316"/>
<rect x="59" y="70" width="9" height="12" rx="3" fill="#F97316"/>
<rect x="27" y="80" width="17" height="7" rx="3.5" fill="#FFF7E8"/>
<rect x="56" y="80" width="17" height="7" rx="3.5" fill="#FFF7E8"/>
<rect x="20" y="28" width="60" height="48" rx="9" fill="#F97316"/>
<rect x="30" y="34" width="8" height="4" rx="2" fill="#FFF7E8"/>
<rect x="62" y="34" width="8" height="4" rx="2" fill="#FFF7E8"/>
<circle cx="40" cy="49" r="5" fill="#FFF7E8"/><circle cx="60" cy="49" r="5" fill="#FFF7E8"/>
<circle cx="41.5" cy="49.5" r="2.4" fill="#123F66"/><circle cx="61.5" cy="49.5" r="2.4" fill="#123F66"/>
<path d="M40 60 Q50 69 60 60" stroke="#FFF7E8" stroke-width="4.5" stroke-linecap="round" fill="none"/>
</svg>
